<?xml version="1.0" encoding="UTF-8" standalone="no"?><svg xmlns="http://www.w3.org/2000/svg" xmlns:xlink="http://www.w3.org/1999/xlink" contentScriptType="application/ecmascript" contentStyleType="text/css" height="94px" preserveAspectRatio="none" style="width:339px;height:94px;" version="1.1" viewBox="0 0 339 94" width="339px" zoomAndPan="magnify"><defs/><g><line style="stroke: #000000; stroke-width: 1.7;" x1="10" x2="10" y1="10" y2="63.9688"/><line style="stroke: #000000; stroke-width: 1.7;" x1="320" x2="320" y1="10" y2="63.9688"/><line style="stroke: #AAAAAA; stroke-width: 0.5; stroke-dasharray: 3.0,5.0;" x1="15" x2="15" y1="10" y2="63.9688"/><line style="stroke: #AAAAAA; stroke-width: 0.5; stroke-dasharray: 3.0,5.0;" x1="65" x2="65" y1="10" y2="63.9688"/><line style="stroke: #AAAAAA; stroke-width: 0.5; stroke-dasharray: 3.0,5.0;" x1="115" x2="115" y1="10" y2="63.9688"/><line style="stroke: #AAAAAA; stroke-width: 0.5; stroke-dasharray: 3.0,5.0;" x1="165" x2="165" y1="10" y2="63.9688"/><line style="stroke: #AAAAAA; stroke-width: 0.5; stroke-dasharray: 3.0,5.0;" x1="215" x2="215" y1="10" y2="63.9688"/><line style="stroke: #AAAAAA; stroke-width: 0.5; stroke-dasharray: 3.0,5.0;" x1="265" x2="265" y1="10" y2="63.9688"/><line style="stroke: #AAAAAA; stroke-width: 0.5; stroke-dasharray: 3.0,5.0;" x1="315" x2="315" y1="10" y2="63.9688"/><line style="stroke: #000000; stroke-width: 1.7;" x1="10" x2="320" y1="10" y2="10"/><text fill="#000000" font-family="sans-serif" font-size="12" lengthAdjust="spacingAndGlyphs" textLength="77" x="15" y="21.1387">Main Thread</text><line style="stroke: #000000; stroke-width: 1.0;" x1="10" x2="93" y1="24.9688" y2="24.9688"/><line style="stroke: #000000; stroke-width: 1.0;" x1="93" x2="103" y1="24.9688" y2="10"/><polygon fill="#D7E0F2" points="27,29.9688,253,29.9688,265,41.9688,253,53.9688,27,53.9688,15,41.9688" style="stroke: #038048; stroke-width: 1.5;"/><polygon fill="#D7E0F2" points="277,29.9688,315,29.9688,315,53.9688,277,53.9688,265,41.9688" style="stroke: #D7E0F2; stroke-width: 1.5;"/><path d="M315,29.9688 L277,29.9688 L265,41.9688 L277,53.9688 L315,53.9688 " fill="#D7E0F2" style="stroke: #038048; stroke-width: 1.5;"/><text fill="#000000" font-family="sans-serif" font-size="12" lengthAdjust="spacingAndGlyphs" textLength="91" x="94.5" y="46.123">UI rederovanie</text><text fill="#000000" font-family="sans-serif" font-size="12" lengthAdjust="spacingAndGlyphs" textLength="15" x="277" y="46.123">ok</text><line style="stroke: #000000; stroke-width: 2.0;" x1="15" x2="15" y1="63.9688" y2="68.9688"/><line style="stroke: #000000; stroke-width: 2.0;" x1="65" x2="65" y1="63.9688" y2="68.9688"/><line style="stroke: #000000; stroke-width: 2.0;" x1="115" x2="115" y1="63.9688" y2="68.9688"/><line style="stroke: #000000; stroke-width: 2.0;" x1="165" x2="165" y1="63.9688" y2="68.9688"/><line style="stroke: #000000; stroke-width: 2.0;" x1="215" x2="215" y1="63.9688" y2="68.9688"/><line style="stroke: #000000; stroke-width: 2.0;" x1="265" x2="265" y1="63.9688" y2="68.9688"/><line style="stroke: #000000; stroke-width: 2.0;" x1="315" x2="315" y1="63.9688" y2="68.9688"/><line style="stroke: #000000; stroke-width: 2.0;" x1="15" x2="315" y1="63.9688" y2="63.9688"/><text fill="#000000" font-family="sans-serif" font-size="12" lengthAdjust="spacingAndGlyphs" textLength="8" x="11" y="81.1074">0</text><text fill="#000000" font-family="sans-serif" font-size="12" lengthAdjust="spacingAndGlyphs" textLength="24" x="53" y="81.1074">100</text><text fill="#000000" font-family="sans-serif" font-size="12" lengthAdjust="spacingAndGlyphs" textLength="24" x="103" y="81.1074">200</text><text fill="#000000" font-family="sans-serif" font-size="12" lengthAdjust="spacingAndGlyphs" textLength="24" x="153" y="81.1074">300</text><text fill="#000000" font-family="sans-serif" font-size="12" lengthAdjust="spacingAndGlyphs" textLength="24" x="203" y="81.1074">400</text><text fill="#000000" font-family="sans-serif" font-size="12" lengthAdjust="spacingAndGlyphs" textLength="24" x="253" y="81.1074">500</text><text fill="#000000" font-family="sans-serif" font-size="12" lengthAdjust="spacingAndGlyphs" textLength="24" x="303" y="81.1074">600</text><!--MD5=[2751aa68a965b51cc7bb859b14b4f23e]
@startuml
concise "Main Thread" as WU
scale 100 as 50 pixels

@WU
0 is "UI rederovanie"
+500 is ok
@enduml

PlantUML version 1.2020.06beta1(Unknown compile time)
(GPL source distribution)
Java Runtime: Java(TM) SE Runtime Environment
JVM: Java HotSpot(TM) 64-Bit Server VM
Java Version: 1.7.0_25-b15
Operating System: Linux
Default Encoding: UTF-8
Language: en
Country: US
--></g></svg>